<?xml version="1.0" encoding="UTF-8" standalone="no"?>
<svg
   xmlns:dc="http://purl.org/dc/elements/1.1/"
   xmlns:cc="http://creativecommons.org/ns#"
   xmlns:rdf="http://www.w3.org/1999/02/22-rdf-syntax-ns#"
   xmlns:svg="http://www.w3.org/2000/svg"
   xmlns="http://www.w3.org/2000/svg"
   xmlns:sodipodi="http://sodipodi.sourceforge.net/DTD/sodipodi-0.dtd"
   xmlns:inkscape="http://www.inkscape.org/namespaces/inkscape"
   width="48"
   height="48"
   viewBox="0 0 12.7 12.7"
   version="1.1"
   id="svg8"
   inkscape:version="0.92.5 (2060ec1f9f, 2020-04-08)"
   sodipodi:docname="CrossHairZoomed.svg"
   inkscape:export-filename="/home/pkowal/deepspaceimmersion/image/CrossHairZoomed.png"
   inkscape:export-xdpi="96"
   inkscape:export-ydpi="96">
  <defs
     id="defs2" />
  <sodipodi:namedview
     id="base"
     pagecolor="#ffffff"
     bordercolor="#666666"
     borderopacity="1.0"
     inkscape:pageopacity="0.0"
     inkscape:pageshadow="2"
     inkscape:zoom="22.627417"
     inkscape:cx="16.608245"
     inkscape:cy="22.476743"
     inkscape:document-units="mm"
     inkscape:current-layer="layer1"
     inkscape:document-rotation="0"
     showgrid="true"
     units="px"
     inkscape:window-width="2560"
     inkscape:window-height="1352"
     inkscape:window-x="0"
     inkscape:window-y="24"
     inkscape:window-maximized="1">
    <inkscape:grid
       type="xygrid"
       id="grid837"
       empspacing="4" />
  </sodipodi:namedview>
  <metadata
     id="metadata5">
    <rdf:RDF>
      <cc:Work
         rdf:about="">
        <dc:format>image/svg+xml</dc:format>
        <dc:type
           rdf:resource="http://purl.org/dc/dcmitype/StillImage" />
        <dc:title />
      </cc:Work>
    </rdf:RDF>
  </metadata>
  <g
     inkscape:label="Warstwa 1"
     inkscape:groupmode="layer"
     id="layer1"
     transform="translate(0,4.2333333)">
    <path
       style="color:#000000;font-style:normal;font-variant:normal;font-weight:normal;font-stretch:normal;font-size:medium;line-height:normal;font-family:sans-serif;font-variant-ligatures:normal;font-variant-position:normal;font-variant-caps:normal;font-variant-numeric:normal;font-variant-alternates:normal;font-feature-settings:normal;text-indent:0;text-align:start;text-decoration:none;text-decoration-line:none;text-decoration-style:solid;text-decoration-color:#000000;letter-spacing:normal;word-spacing:normal;text-transform:none;writing-mode:lr-tb;direction:ltr;text-orientation:mixed;dominant-baseline:auto;baseline-shift:baseline;text-anchor:start;white-space:normal;shape-padding:0;clip-rule:nonzero;display:inline;overflow:visible;visibility:visible;opacity:1;isolation:auto;mix-blend-mode:normal;color-interpolation:sRGB;color-interpolation-filters:linearRGB;solid-color:#000000;solid-opacity:1;vector-effect:none;fill:#7dff00;fill-opacity:0.50196081;fill-rule:nonzero;stroke:none;stroke-width:2.00000024;stroke-linecap:round;stroke-linejoin:round;stroke-miterlimit:4;stroke-dasharray:none;stroke-dashoffset:0;stroke-opacity:1;color-rendering:auto;image-rendering:auto;shape-rendering:auto;text-rendering:auto;enable-background:accumulate"
       d="M 23.984375 0.984375 A 0.99978497 0.99978497 0 0 0 23.001953 1.9960938 L 23.001953 3.0253906 C 12.209819 3.5310212 3.5310334 12.206926 3.0214844 22.998047 L 2 22.998047 A 1.0002461 1.0002461 0 1 0 2 24.998047 L 3.0214844 24.998047 C 3.5272362 35.792769 12.207231 44.472764 23.001953 44.978516 L 23.001953 46 A 1.0002461 1.0002461 0 1 0 25.001953 46 L 25.001953 44.978516 C 35.793074 44.468967 44.468979 35.790181 44.974609 24.998047 L 45.996094 24.998047 A 1.0002461 1.0002461 0 0 0 45.996094 22.998047 L 44.974609 22.998047 C 44.465183 12.209513 35.790486 3.5348175 25.001953 3.0253906 L 25.001953 1.9960938 A 0.99978497 0.99978497 0 0 0 23.984375 0.984375 z M 23.001953 5.0527344 L 23.001953 13.054688 C 17.735168 13.530628 13.530363 17.732294 13.050781 22.998047 L 5.0488281 22.998047 C 5.5553324 13.295798 13.298798 5.5558532 23.001953 5.0527344 z M 25.001953 5.0527344 C 34.701938 5.5591205 42.442833 13.298062 42.949219 22.998047 L 34.947266 22.998047 C 34.467917 17.734864 30.265136 13.534036 25.001953 13.054688 L 25.001953 5.0527344 z M 23.001953 15.054688 L 23.001953 16 A 1.0002461 1.0002461 0 1 0 25.001953 16 L 25.001953 15.054688 C 29.178655 15.516379 32.478585 18.820531 32.939453 22.998047 L 32 22.998047 A 1.0002461 1.0002461 0 1 0 32 24.998047 L 32.939453 24.998047 C 32.481737 29.17834 29.181189 32.482212 25.001953 32.943359 L 25.001953 31.996094 A 0.99978497 0.99978497 0 0 0 23.984375 30.984375 A 0.99978497 0.99978497 0 0 0 23.001953 31.996094 L 23.001953 32.943359 C 18.819146 32.485368 15.516596 29.180851 15.058594 24.998047 L 15.996094 24.998047 A 1.0002461 1.0002461 0 0 0 15.996094 22.998047 L 15.058594 22.998047 C 15.519752 18.818021 18.82168 15.513218 23.001953 15.054688 z M 5.0488281 24.998047 L 13.050781 24.998047 C 13.526954 30.267398 17.732603 34.47304 23.001953 34.949219 L 23.001953 42.953125 C 13.296179 42.449896 5.5515847 34.703948 5.0488281 24.998047 z M 34.947266 24.998047 L 42.949219 24.998047 C 42.446579 34.701684 34.704558 42.446628 25.001953 42.953125 L 25.001953 34.949219 C 30.267701 34.469632 34.471325 30.264829 34.947266 24.998047 z "
       transform="matrix(0.26458333,0,0,0.26458333,0,-4.2333333)"
       id="path834" />
  </g>
</svg>
