<?xml version="1.0" encoding="UTF-8" standalone="no"?>
<svg
   xmlns:dc="http://purl.org/dc/elements/1.1/"
   xmlns:cc="http://creativecommons.org/ns#"
   xmlns:rdf="http://www.w3.org/1999/02/22-rdf-syntax-ns#"
   xmlns:svg="http://www.w3.org/2000/svg"
   xmlns="http://www.w3.org/2000/svg"
   xmlns:sodipodi="http://sodipodi.sourceforge.net/DTD/sodipodi-0.dtd"
   xmlns:inkscape="http://www.inkscape.org/namespaces/inkscape"
   width="32"
   height="32"
   viewBox="0 0 8.4666665 8.4666669"
   version="1.1"
   id="svg8"
   inkscape:version="1.0.2 (e86c870879, 2021-01-15)"
   sodipodi:docname="CrossHair.svg"
   inkscape:export-filename="/home/pkowal/trackertest/image/CrossHair.png"
   inkscape:export-xdpi="96"
   inkscape:export-ydpi="96">
  <defs
     id="defs2" />
  <sodipodi:namedview
     id="base"
     pagecolor="#ffffff"
     bordercolor="#666666"
     borderopacity="1.0"
     inkscape:pageopacity="0.0"
     inkscape:pageshadow="2"
     inkscape:zoom="11.313708"
     inkscape:cx="-0.75691542"
     inkscape:cy="16.982407"
     inkscape:document-units="mm"
     inkscape:current-layer="layer1"
     inkscape:document-rotation="0"
     showgrid="true"
     units="px"
     inkscape:window-width="1920"
     inkscape:window-height="1115"
     inkscape:window-x="0"
     inkscape:window-y="24"
     inkscape:window-maximized="1">
    <inkscape:grid
       type="xygrid"
       id="grid837"
       empspacing="4" />
  </sodipodi:namedview>
  <metadata
     id="metadata5">
    <rdf:RDF>
      <cc:Work
         rdf:about="">
        <dc:format>image/svg+xml</dc:format>
        <dc:type
           rdf:resource="http://purl.org/dc/dcmitype/StillImage" />
        <dc:title></dc:title>
      </cc:Work>
    </rdf:RDF>
  </metadata>
  <g
     inkscape:label="Warstwa 1"
     inkscape:groupmode="layer"
     id="layer1">
    <path
       id="path833"
       style="color:#000000;font-style:normal;font-variant:normal;font-weight:normal;font-stretch:normal;font-size:medium;line-height:normal;font-family:sans-serif;font-variant-ligatures:normal;font-variant-position:normal;font-variant-caps:normal;font-variant-numeric:normal;font-variant-alternates:normal;font-variant-east-asian:normal;font-feature-settings:normal;font-variation-settings:normal;text-indent:0;text-align:start;text-decoration:none;text-decoration-line:none;text-decoration-style:solid;text-decoration-color:#000000;letter-spacing:normal;word-spacing:normal;text-transform:none;writing-mode:lr-tb;direction:ltr;text-orientation:mixed;dominant-baseline:auto;baseline-shift:baseline;text-anchor:start;white-space:normal;shape-padding:0;shape-margin:0;inline-size:0;clip-rule:nonzero;display:inline;overflow:visible;visibility:visible;opacity:1;isolation:auto;mix-blend-mode:normal;color-interpolation:sRGB;color-interpolation-filters:linearRGB;solid-color:#000000;solid-opacity:1;vector-effect:none;fill:#7dff00;fill-opacity:1;fill-rule:nonzero;stroke:none;stroke-width:3.77953;stroke-linecap:butt;stroke-linejoin:miter;stroke-miterlimit:4;stroke-dasharray:none;stroke-dashoffset:0;stroke-opacity:1;color-rendering:auto;image-rendering:auto;shape-rendering:auto;text-rendering:auto;enable-background:accumulate;stop-color:#000000;stop-opacity:1"
       d="M 2.5996094 0.5703125 C 2.0883712 0.5703125 1.577284 0.76646599 1.1855469 1.1582031 C 0.4020726 1.9416774 0.4020726 3.2028539 1.1855469 3.9863281 L 4.8183594 7.6191406 C 3.0583133 9.9595896 2 12.855088 2 15.996094 C 2 19.132632 3.0550354 22.027012 4.8105469 24.367188 L 1.1640625 28.013672 C 0.38058823 28.797146 0.38058823 30.058323 1.1640625 30.841797 C 1.9475368 31.625271 3.2087132 31.625271 3.9921875 30.841797 L 7.6386719 27.195312 C 9.975668 28.947741 12.864024 30 15.996094 30 C 19.12607 30 22.013933 28.947571 24.351562 27.197266 L 28.017578 30.863281 C 28.801052 31.646756 30.062229 31.646756 30.845703 30.863281 C 31.629177 30.079807 31.629177 28.818631 30.845703 28.035156 L 27.183594 24.373047 C 28.943107 22.031899 30 19.135145 30 15.996094 C 30 12.875051 28.954148 9.9967636 27.212891 7.6640625 L 30.869141 4.0097656 C 31.652615 3.2262914 31.652615 1.9651149 30.869141 1.1816406 C 30.085666 0.39816635 28.822537 0.39816635 28.039062 1.1816406 L 24.390625 4.8300781 C 22.046252 3.063506 19.14352 2 15.996094 2 C 12.869049 2 9.985434 3.0490321 7.6503906 4.7949219 L 4.0136719 1.1582031 C 3.6219347 0.76646599 3.1108476 0.5703125 2.5996094 0.5703125 z M 15.996094 6.4003906 C 17.944953 6.4003906 19.750256 6.9759066 21.259766 7.9609375 L 19.554688 9.6660156 C 18.771213 10.44949 18.771213 11.710666 19.554688 12.494141 C 20.338162 13.277615 21.599338 13.277615 22.382812 12.494141 L 24.076172 10.800781 C 25.037305 12.296207 25.599609 14.074381 25.599609 15.996094 C 25.599609 17.936386 25.029099 19.734751 24.050781 21.240234 L 22.361328 19.550781 C 21.577854 18.767307 20.316677 18.767307 19.533203 19.550781 C 18.749729 20.334256 18.749729 21.595432 19.533203 22.378906 L 21.216797 24.0625 C 19.715768 25.0321 17.926976 25.599609 15.996094 25.599609 C 14.063042 25.599609 12.274259 25.032154 10.773438 24.060547 L 12.476562 22.355469 C 13.260037 21.571994 13.260037 20.310818 12.476562 19.527344 C 11.693088 18.743869 10.431912 18.743869 9.6484375 19.527344 L 7.9433594 21.232422 C 6.9691931 19.728419 6.4003906 17.93325 6.4003906 15.996094 C 6.4003906 14.053869 6.9723068 12.2571 7.9511719 10.751953 L 9.6699219 12.472656 C 10.453396 13.256131 11.716526 13.256131 12.5 12.472656 C 13.283474 11.689182 13.283474 10.428006 12.5 9.6445312 L 10.785156 7.9296875 C 12.283572 6.9640006 14.06811 6.4003906 15.996094 6.4003906 z "
       transform="scale(0.26458333)" />
  </g>
</svg>
