{
    "asset" : {
        "generator" : "Khronos glTF Blender I/O v1.6.16",
        "version" : "2.0"
    },
    "scene" : 0,
    "scenes" : [
        {
            "name" : "Scene",
            "nodes" : [
                0,
                1
            ]
        }
    ],
    "nodes" : [
        {
            "mesh" : 0,
            "name" : "Asteroid3"
        },
        {
            "name" : "Asteroid3-Sphere-colonly",
            "scale" : [
                0.7133638858795166,
                0.7133638858795166,
                0.7133638858795166
            ]
        }
    ],
    "materials" : [
        {
            "doubleSided" : true,
            "name" : "Material",
            "pbrMetallicRoughness" : {
                "baseColorFactor" : [
                    0.800000011920929,
                    0.800000011920929,
                    0.800000011920929,
                    1
                ],
                "metallicFactor" : 0,
                "roughnessFactor" : 0.4000000059604645
            }
        }
    ],
    "meshes" : [
        {
            "name" : "Asteroid3",
            "primitives" : [
                {
                    "attributes" : {
                        "POSITION" : 0,
                        "NORMAL" : 1,
                        "TEXCOORD_0" : 2,
                        "COLOR_0" : 3
                    },
                    "indices" : 4,
                    "material" : 0
                }
            ]
        }
    ],
    "accessors" : [
        {
            "bufferView" : 0,
            "componentType" : 5126,
            "count" : 2038,
            "max" : [
                0.7940097451210022,
                0.6836729645729065,
                0.801301896572113
            ],
            "min" : [
                -0.6960708498954773,
                -0.6850877404212952,
                -0.6942102909088135
            ],
            "type" : "VEC3"
        },
        {
            "bufferView" : 1,
            "componentType" : 5126,
            "count" : 2038,
            "type" : "VEC3"
        },
        {
            "bufferView" : 2,
            "componentType" : 5126,
            "count" : 2038,
            "type" : "VEC2"
        },
        {
            "bufferView" : 3,
            "componentType" : 5123,
            "count" : 2038,
            "normalized" : true,
            "type" : "VEC4"
        },
        {
            "bufferView" : 4,
            "componentType" : 5123,
            "count" : 2304,
            "type" : "SCALAR"
        }
    ],
    "bufferViews" : [
        {
            "buffer" : 0,
            "byteLength" : 24456,
            "byteOffset" : 0
        },
        {
            "buffer" : 0,
            "byteLength" : 24456,
            "byteOffset" : 24456
        },
        {
            "buffer" : 0,
            "byteLength" : 16304,
            "byteOffset" : 48912
        },
        {
            "buffer" : 0,
            "byteLength" : 16304,
            "byteOffset" : 65216
        },
        {
            "buffer" : 0,
            "byteLength" : 4608,
            "byteOffset" : 81520
        }
    ],
    "buffers" : [
        {
            "byteLength" : 86128,
            "uri" : "data:application/octet-stream;base64,"
        }
    ]
}
