{
    "asset" : {
        "generator" : "Khronos glTF Blender I/O v1.6.16",
        "version" : "2.0"
    },
    "scene" : 0,
    "scenes" : [
        {
            "name" : "Scene",
            "nodes" : [
                0,
                1
            ]
        }
    ],
    "nodes" : [
        {
            "mesh" : 0,
            "name" : "Asteroid7"
        },
        {
            "name" : "Asteroid7-Sphere-colonly",
            "scale" : [
                0.8288508057594299,
                0.8288508057594299,
                0.8288508057594299
            ]
        }
    ],
    "meshes" : [
        {
            "name" : "Cube",
            "primitives" : [
                {
                    "attributes" : {
                        "POSITION" : 0,
                        "NORMAL" : 1,
                        "TEXCOORD_0" : 2,
                        "COLOR_0" : 3
                    },
                    "indices" : 4
                }
            ]
        }
    ],
    "accessors" : [
        {
            "bufferView" : 0,
            "componentType" : 5126,
            "count" : 2506,
            "max" : [
                0.9981420040130615,
                0.9981420040130615,
                0.8006994724273682
            ],
            "min" : [
                -0.8952500820159912,
                -0.8006994724273682,
                -0.8006994724273682
            ],
            "type" : "VEC3"
        },
        {
            "bufferView" : 1,
            "componentType" : 5126,
            "count" : 2506,
            "type" : "VEC3"
        },
        {
            "bufferView" : 2,
            "componentType" : 5126,
            "count" : 2506,
            "type" : "VEC2"
        },
        {
            "bufferView" : 3,
            "componentType" : 5123,
            "count" : 2506,
            "normalized" : true,
            "type" : "VEC4"
        },
        {
            "bufferView" : 4,
            "componentType" : 5123,
            "count" : 2760,
            "type" : "SCALAR"
        }
    ],
    "bufferViews" : [
        {
            "buffer" : 0,
            "byteLength" : 30072,
            "byteOffset" : 0
        },
        {
            "buffer" : 0,
            "byteLength" : 30072,
            "byteOffset" : 30072
        },
        {
            "buffer" : 0,
            "byteLength" : 20048,
            "byteOffset" : 60144
        },
        {
            "buffer" : 0,
            "byteLength" : 20048,
            "byteOffset" : 80192
        },
        {
            "buffer" : 0,
            "byteLength" : 5520,
            "byteOffset" : 100240
        }
    ],
    "buffers" : [
        {
            "byteLength" : 105760,
            "uri" : "data:application/octet-stream;base64,"
        }
    ]
}
