{
    "asset" : {
        "generator" : "Khronos glTF Blender I/O v1.6.16",
        "version" : "2.0"
    },
    "scene" : 0,
    "scenes" : [
        {
            "name" : "Scene",
            "nodes" : [
                0,
                1
            ]
        }
    ],
    "nodes" : [
        {
            "mesh" : 0,
            "name" : "Asteroid5"
        },
        {
            "name" : "Asteroid5-Sphere-colonly",
            "scale" : [
                1.1902555227279663,
                1.1902555227279663,
                1.1902555227279663
            ]
        }
    ],
    "materials" : [
        {
            "doubleSided" : true,
            "name" : "Material",
            "pbrMetallicRoughness" : {
                "baseColorFactor" : [
                    0.800000011920929,
                    0.800000011920929,
                    0.800000011920929,
                    1
                ],
                "metallicFactor" : 0,
                "roughnessFactor" : 0.4000000059604645
            }
        }
    ],
    "meshes" : [
        {
            "name" : "Asteroid5",
            "primitives" : [
                {
                    "attributes" : {
                        "POSITION" : 0,
                        "NORMAL" : 1,
                        "TEXCOORD_0" : 2,
                        "COLOR_0" : 3
                    },
                    "indices" : 4,
                    "material" : 0
                }
            ]
        }
    ],
    "accessors" : [
        {
            "bufferView" : 0,
            "componentType" : 5126,
            "count" : 3436,
            "max" : [
                1.172013759613037,
                1.1828678846359253,
                1.290579080581665
            ],
            "min" : [
                -1.221483588218689,
                -1.17034113407135,
                -1.1734085083007812
            ],
            "type" : "VEC3"
        },
        {
            "bufferView" : 1,
            "componentType" : 5126,
            "count" : 3436,
            "type" : "VEC3"
        },
        {
            "bufferView" : 2,
            "componentType" : 5126,
            "count" : 3436,
            "type" : "VEC2"
        },
        {
            "bufferView" : 3,
            "componentType" : 5123,
            "count" : 3436,
            "normalized" : true,
            "type" : "VEC4"
        },
        {
            "bufferView" : 4,
            "componentType" : 5123,
            "count" : 3912,
            "type" : "SCALAR"
        }
    ],
    "bufferViews" : [
        {
            "buffer" : 0,
            "byteLength" : 41232,
            "byteOffset" : 0
        },
        {
            "buffer" : 0,
            "byteLength" : 41232,
            "byteOffset" : 41232
        },
        {
            "buffer" : 0,
            "byteLength" : 27488,
            "byteOffset" : 82464
        },
        {
            "buffer" : 0,
            "byteLength" : 27488,
            "byteOffset" : 109952
        },
        {
            "buffer" : 0,
            "byteLength" : 7824,
            "byteOffset" : 137440
        }
    ],
    "buffers" : [
        {
            "byteLength" : 145264,
            "uri" : "data:application/octet-stream;base64,"
        }
    ]
}
