{
    "asset" : {
        "generator" : "Khronos glTF Blender I/O v1.6.16",
        "version" : "2.0"
    },
    "scene" : 0,
    "scenes" : [
        {
            "name" : "Scene",
            "nodes" : [
                0,
                1
            ]
        }
    ],
    "nodes" : [
        {
            "mesh" : 0,
            "name" : "Asteroid6"
        },
        {
            "name" : "Asteroid6-Capsule-colonly",
            "scale" : [
                1.0370423793792725,
                1.8320120573043823,
                1.0370423793792725
            ]
        }
    ],
    "materials" : [
        {
            "doubleSided" : true,
            "name" : "Material",
            "pbrMetallicRoughness" : {
                "baseColorFactor" : [
                    0.800000011920929,
                    0.800000011920929,
                    0.800000011920929,
                    1
                ],
                "metallicFactor" : 0,
                "roughnessFactor" : 0.4000000059604645
            }
        }
    ],
    "meshes" : [
        {
            "name" : "Asteroid6",
            "primitives" : [
                {
                    "attributes" : {
                        "POSITION" : 0,
                        "NORMAL" : 1,
                        "TEXCOORD_0" : 2,
                        "COLOR_0" : 3
                    },
                    "indices" : 4,
                    "material" : 0
                }
            ]
        }
    ],
    "accessors" : [
        {
            "bufferView" : 0,
            "componentType" : 5126,
            "count" : 5192,
            "max" : [
                1.2007114887237549,
                1.8223329782485962,
                1.200932502746582
            ],
            "min" : [
                -1.0187455415725708,
                -1.902559757232666,
                -1.0157731771469116
            ],
            "type" : "VEC3"
        },
        {
            "bufferView" : 1,
            "componentType" : 5126,
            "count" : 5192,
            "type" : "VEC3"
        },
        {
            "bufferView" : 2,
            "componentType" : 5126,
            "count" : 5192,
            "type" : "VEC2"
        },
        {
            "bufferView" : 3,
            "componentType" : 5123,
            "count" : 5192,
            "normalized" : true,
            "type" : "VEC4"
        },
        {
            "bufferView" : 4,
            "componentType" : 5123,
            "count" : 5832,
            "type" : "SCALAR"
        }
    ],
    "bufferViews" : [
        {
            "buffer" : 0,
            "byteLength" : 62304,
            "byteOffset" : 0
        },
        {
            "buffer" : 0,
            "byteLength" : 62304,
            "byteOffset" : 62304
        },
        {
            "buffer" : 0,
            "byteLength" : 41536,
            "byteOffset" : 124608
        },
        {
            "buffer" : 0,
            "byteLength" : 41536,
            "byteOffset" : 166144
        },
        {
            "buffer" : 0,
            "byteLength" : 11664,
            "byteOffset" : 207680
        }
    ],
    "buffers" : [
        {
            "byteLength" : 219344,
            "uri" : "data:application/octet-stream;base64,"
        }
    ]
}
