{
    "asset" : {
        "generator" : "Khronos glTF Blender I/O v1.6.16",
        "version" : "2.0"
    },
    "scene" : 0,
    "scenes" : [
        {
            "name" : "Scene",
            "nodes" : [
                0,
                1
            ]
        }
    ],
    "nodes" : [
        {
            "mesh" : 0,
            "name" : "Asteroid2",
            "scale" : [
                0.5,
                0.5,
                0.5
            ]
        },
        {
            "name" : "Asteroid2-Sphere-colonly",
            "scale" : [
                0.36302369832992554,
                0.36302369832992554,
                0.36302369832992554
            ]
        }
    ],
    "materials" : [
        {
            "doubleSided" : true,
            "name" : "Material",
            "pbrMetallicRoughness" : {
                "baseColorFactor" : [
                    0.800000011920929,
                    0.800000011920929,
                    0.800000011920929,
                    1
                ],
                "metallicFactor" : 0,
                "roughnessFactor" : 0.4000000059604645
            }
        }
    ],
    "meshes" : [
        {
            "name" : "Asteroid2",
            "primitives" : [
                {
                    "attributes" : {
                        "POSITION" : 0,
                        "NORMAL" : 1,
                        "TEXCOORD_0" : 2,
                        "COLOR_0" : 3
                    },
                    "indices" : 4,
                    "material" : 0
                }
            ]
        }
    ],
    "accessors" : [
        {
            "bufferView" : 0,
            "componentType" : 5126,
            "count" : 834,
            "max" : [
                0.6993781924247742,
                0.7044492363929749,
                0.817383348941803
            ],
            "min" : [
                -0.817383348941803,
                -0.6993137001991272,
                -0.6993374228477478
            ],
            "type" : "VEC3"
        },
        {
            "bufferView" : 1,
            "componentType" : 5126,
            "count" : 834,
            "type" : "VEC3"
        },
        {
            "bufferView" : 2,
            "componentType" : 5126,
            "count" : 834,
            "type" : "VEC2"
        },
        {
            "bufferView" : 3,
            "componentType" : 5123,
            "count" : 834,
            "normalized" : true,
            "type" : "VEC4"
        },
        {
            "bufferView" : 4,
            "componentType" : 5123,
            "count" : 918,
            "type" : "SCALAR"
        }
    ],
    "bufferViews" : [
        {
            "buffer" : 0,
            "byteLength" : 10008,
            "byteOffset" : 0
        },
        {
            "buffer" : 0,
            "byteLength" : 10008,
            "byteOffset" : 10008
        },
        {
            "buffer" : 0,
            "byteLength" : 6672,
            "byteOffset" : 20016
        },
        {
            "buffer" : 0,
            "byteLength" : 6672,
            "byteOffset" : 26688
        },
        {
            "buffer" : 0,
            "byteLength" : 1836,
            "byteOffset" : 33360
        }
    ],
    "buffers" : [
        {
            "byteLength" : 35196,
            "uri" : "data:application/octet-stream;base64,"
        }
    ]
}
