{
    "asset" : {
        "generator" : "Khronos glTF Blender I/O v1.6.16",
        "version" : "2.0"
    },
    "scene" : 0,
    "scenes" : [
        {
            "name" : "Scene",
            "nodes" : [
                0,
                1
            ]
        }
    ],
    "nodes" : [
        {
            "mesh" : 0,
            "name" : "Asteroid4"
        },
        {
            "name" : "Asteroid4-Sphere-colonly",
            "scale" : [
                0.8288508057594299,
                0.8288508057594299,
                0.8288508057594299
            ]
        }
    ],
    "materials" : [
        {
            "doubleSided" : true,
            "name" : "Material",
            "pbrMetallicRoughness" : {
                "baseColorFactor" : [
                    0.800000011920929,
                    0.800000011920929,
                    0.800000011920929,
                    1
                ],
                "metallicFactor" : 0,
                "roughnessFactor" : 0.4000000059604645
            }
        }
    ],
    "meshes" : [
        {
            "name" : "Asteroid4",
            "primitives" : [
                {
                    "attributes" : {
                        "POSITION" : 0,
                        "NORMAL" : 1,
                        "TEXCOORD_0" : 2,
                        "COLOR_0" : 3
                    },
                    "indices" : 4,
                    "material" : 0
                }
            ]
        }
    ],
    "accessors" : [
        {
            "bufferView" : 0,
            "componentType" : 5126,
            "count" : 3052,
            "max" : [
                0.8184441328048706,
                0.8184441328048706,
                0.902378261089325
            ],
            "min" : [
                -0.8184441328048706,
                -0.9070245623588562,
                -0.902378261089325
            ],
            "type" : "VEC3"
        },
        {
            "bufferView" : 1,
            "componentType" : 5126,
            "count" : 3052,
            "type" : "VEC3"
        },
        {
            "bufferView" : 2,
            "componentType" : 5126,
            "count" : 3052,
            "type" : "VEC2"
        },
        {
            "bufferView" : 3,
            "componentType" : 5123,
            "count" : 3052,
            "normalized" : true,
            "type" : "VEC4"
        },
        {
            "bufferView" : 4,
            "componentType" : 5123,
            "count" : 3456,
            "type" : "SCALAR"
        }
    ],
    "bufferViews" : [
        {
            "buffer" : 0,
            "byteLength" : 36624,
            "byteOffset" : 0
        },
        {
            "buffer" : 0,
            "byteLength" : 36624,
            "byteOffset" : 36624
        },
        {
            "buffer" : 0,
            "byteLength" : 24416,
            "byteOffset" : 73248
        },
        {
            "buffer" : 0,
            "byteLength" : 24416,
            "byteOffset" : 97664
        },
        {
            "buffer" : 0,
            "byteLength" : 6912,
            "byteOffset" : 122080
        }
    ],
    "buffers" : [
        {
            "byteLength" : 128992,
            "uri" : "data:application/octet-stream;base64,"
        }
    ]
}
