{
    "asset" : {
        "generator" : "Khronos glTF Blender I/O v1.6.16",
        "version" : "2.0"
    },
    "scene" : 0,
    "scenes" : [
        {
            "name" : "Scene",
            "nodes" : [
                0,
                1
            ]
        }
    ],
    "nodes" : [
        {
            "mesh" : 0,
            "name" : "Asteroid1"
        },
        {
            "name" : "Asteroid1-Sphere-colonly",
            "scale" : [
                0.2200000286102295,
                0.2200000286102295,
                0.2200000286102295
            ]
        }
    ],
    "materials" : [
        {
            "doubleSided" : true,
            "name" : "Material",
            "pbrMetallicRoughness" : {
                "baseColorFactor" : [
                    0.800000011920929,
                    0.800000011920929,
                    0.800000011920929,
                    1
                ],
                "metallicFactor" : 0,
                "roughnessFactor" : 0.4000000059604645
            }
        }
    ],
    "meshes" : [
        {
            "name" : "Asteroid1",
            "primitives" : [
                {
                    "attributes" : {
                        "POSITION" : 0,
                        "NORMAL" : 1,
                        "TEXCOORD_0" : 2,
                        "COLOR_0" : 3
                    },
                    "indices" : 4,
                    "material" : 0
                }
            ]
        }
    ],
    "accessors" : [
        {
            "bufferView" : 0,
            "componentType" : 5126,
            "count" : 200,
            "max" : [
                0.20949578285217285,
                0.23491351306438446,
                0.20617951452732086
            ],
            "min" : [
                -0.2112209051847458,
                -0.2330980747938156,
                -0.20715200901031494
            ],
            "type" : "VEC3"
        },
        {
            "bufferView" : 1,
            "componentType" : 5126,
            "count" : 200,
            "type" : "VEC3"
        },
        {
            "bufferView" : 2,
            "componentType" : 5126,
            "count" : 200,
            "type" : "VEC2"
        },
        {
            "bufferView" : 3,
            "componentType" : 5123,
            "count" : 200,
            "normalized" : true,
            "type" : "VEC4"
        },
        {
            "bufferView" : 4,
            "componentType" : 5123,
            "count" : 228,
            "type" : "SCALAR"
        }
    ],
    "bufferViews" : [
        {
            "buffer" : 0,
            "byteLength" : 2400,
            "byteOffset" : 0
        },
        {
            "buffer" : 0,
            "byteLength" : 2400,
            "byteOffset" : 2400
        },
        {
            "buffer" : 0,
            "byteLength" : 1600,
            "byteOffset" : 4800
        },
        {
            "buffer" : 0,
            "byteLength" : 1600,
            "byteOffset" : 6400
        },
        {
            "buffer" : 0,
            "byteLength" : 456,
            "byteOffset" : 8000
        }
    ],
    "buffers" : [
        {
            "byteLength" : 8456,
            "uri" : "data:application/octet-stream;base64,"
        }
    ]
}
