{
    "asset" : {
        "generator" : "Khronos glTF Blender I/O v1.6.16",
        "version" : "2.0"
    },
    "scene" : 0,
    "scenes" : [
        {
            "name" : "Scene",
            "nodes" : [
                2,
                5,
                8,
                11,
                14,
                17
            ]
        }
    ],
    "nodes" : [
        {
            "mesh" : 0,
            "name" : "RocketJunk6",
            "rotation" : [
                -0.7071068286895752,
                0,
                0,
                0.7071068286895752
            ],
            "translation" : [
                0,
                0,
                0.250416100025177
            ]
        },
        {
            "name" : "RocketJunk6-Sphere-colonly",
            "scale" : [
                0.07779993116855621,
                0.07779993116855621,
                0.07779993116855621
            ]
        },
        {
            "children" : [
                0,
                1
            ],
            "name" : "RocketJunk6-Rigid",
            "translation" : [
                0,
                0,
                -0.250416100025177
            ]
        },
        {
            "mesh" : 1,
            "name" : "RocketJunk1",
            "rotation" : [
                -0.7071068286895752,
                0,
                0,
                0.7071068286895752
            ],
            "translation" : [
                0,
                0,
                0.03038521111011505
            ]
        },
        {
            "name" : "RocketJunk1-Capsule-colonly",
            "rotation" : [
                -0.7071068286895752,
                0,
                0,
                0.7071068286895752
            ],
            "scale" : [
                0.13931246101856232,
                0.2324565052986145,
                0.13931246101856232
            ]
        },
        {
            "children" : [
                3,
                4
            ],
            "name" : "RocketJunk1-Rigid",
            "translation" : [
                0,
                0,
                -0.03038521111011505
            ]
        },
        {
            "mesh" : 2,
            "name" : "RocketJunk2",
            "rotation" : [
                -0.7071068286895752,
                0,
                0,
                0.7071068286895752
            ],
            "translation" : [
                0,
                0,
                -0.18022558093070984
            ]
        },
        {
            "name" : "RocketJunk2-Sphere-colonly",
            "scale" : [
                0.09352044016122818,
                0.09352044016122818,
                0.09352044016122818
            ]
        },
        {
            "children" : [
                6,
                7
            ],
            "name" : "RocketJunk2-Rigid",
            "translation" : [
                0,
                0,
                0.18022558093070984
            ]
        },
        {
            "mesh" : 3,
            "name" : "RocketJunk3",
            "rotation" : [
                -0.7071068286895752,
                0,
                0,
                0.7071068286895752
            ],
            "translation" : [
                -0.1434388905763626,
                0,
                -0.21491166949272156
            ]
        },
        {
            "name" : "RocketJunk3-Box-colonly",
            "rotation" : [
                0,
                0.21964778006076813,
                0,
                0.9755792617797852
            ],
            "scale" : [
                0.039279505610466,
                0.010000004433095455,
                0.10669372975826263
            ]
        },
        {
            "children" : [
                9,
                10
            ],
            "name" : "RocketJunk3-Rigid",
            "translation" : [
                0.1434388905763626,
                0,
                0.21491166949272156
            ]
        },
        {
            "mesh" : 4,
            "name" : "RocketJunk5",
            "rotation" : [
                -0.7071068286895752,
                0,
                0,
                0.7071068286895752
            ],
            "translation" : [
                0.0717194527387619,
                0.12422171980142593,
                -0.21491165459156036
            ]
        },
        {
            "name" : "RocketJunk5-Box-colonly",
            "rotation" : [
                0.19022050499916077,
                0.10982393473386765,
                -0.8448764681816101,
                0.4877895414829254
            ],
            "scale" : [
                0.039279505610466,
                0.010000004433095455,
                0.10669372975826263
            ]
        },
        {
            "children" : [
                12,
                13
            ],
            "name" : "RocketJunk5-Rigid",
            "translation" : [
                -0.0717194527387619,
                -0.12422171980142593,
                0.21491165459156036
            ]
        },
        {
            "mesh" : 5,
            "name" : "RocketJunk4",
            "rotation" : [
                -0.7071068286895752,
                0,
                0,
                0.7071068286895752
            ],
            "translation" : [
                0.0717194527387619,
                -0.12422171980142593,
                -0.21491165459156036
            ]
        },
        {
            "name" : "RocketJunk4-Box-colonly",
            "rotation" : [
                -0.19022050499916077,
                0.10982393473386765,
                0.8448764681816101,
                0.4877895414829254
            ],
            "scale" : [
                0.039279505610466,
                0.010000004433095455,
                0.10669372975826263
            ]
        },
        {
            "children" : [
                15,
                16
            ],
            "name" : "RocketJunk4-Rigid",
            "translation" : [
                -0.0717194527387619,
                0.12422171980142593,
                0.21491165459156036
            ]
        }
    ],
    "materials" : [
        {
            "doubleSided" : true,
            "name" : "Material",
            "pbrMetallicRoughness" : {
                "baseColorFactor" : [
                    0.800000011920929,
                    0.800000011920929,
                    0.800000011920929,
                    1
                ],
                "metallicFactor" : 0,
                "roughnessFactor" : 0.4000000059604645
            }
        }
    ],
    "meshes" : [
        {
            "name" : "RocketJunk6",
            "primitives" : [
                {
                    "attributes" : {
                        "POSITION" : 0,
                        "NORMAL" : 1,
                        "TEXCOORD_0" : 2,
                        "COLOR_0" : 3
                    },
                    "indices" : 4,
                    "material" : 0
                }
            ]
        },
        {
            "name" : "RocketJunk1",
            "primitives" : [
                {
                    "attributes" : {
                        "POSITION" : 5,
                        "NORMAL" : 6,
                        "TEXCOORD_0" : 7,
                        "COLOR_0" : 8
                    },
                    "indices" : 9,
                    "material" : 0
                }
            ]
        },
        {
            "name" : "RocketJunk2",
            "primitives" : [
                {
                    "attributes" : {
                        "POSITION" : 10,
                        "NORMAL" : 11,
                        "TEXCOORD_0" : 12,
                        "COLOR_0" : 13
                    },
                    "indices" : 14,
                    "material" : 0
                }
            ]
        },
        {
            "name" : "RocketJunk3",
            "primitives" : [
                {
                    "attributes" : {
                        "POSITION" : 15,
                        "NORMAL" : 16,
                        "TEXCOORD_0" : 17,
                        "COLOR_0" : 18
                    },
                    "indices" : 19,
                    "material" : 0
                }
            ]
        },
        {
            "name" : "RocketJunk5",
            "primitives" : [
                {
                    "attributes" : {
                        "POSITION" : 20,
                        "NORMAL" : 21,
                        "TEXCOORD_0" : 22,
                        "COLOR_0" : 23
                    },
                    "indices" : 24,
                    "material" : 0
                }
            ]
        },
        {
            "name" : "RocketJunk4",
            "primitives" : [
                {
                    "attributes" : {
                        "POSITION" : 25,
                        "NORMAL" : 26,
                        "TEXCOORD_0" : 27,
                        "COLOR_0" : 28
                    },
                    "indices" : 29,
                    "material" : 0
                }
            ]
        }
    ],
    "accessors" : [
        {
            "bufferView" : 0,
            "componentType" : 5126,
            "count" : 80,
            "max" : [
                0.08148355036973953,
                0.33023935556411743,
                0.09191595017910004
            ],
            "min" : [
                -0.09456595033407211,
                0.2163076549768448,
                -0.08334484696388245
            ],
            "type" : "VEC3"
        },
        {
            "bufferView" : 1,
            "componentType" : 5126,
            "count" : 80,
            "type" : "VEC3"
        },
        {
            "bufferView" : 2,
            "componentType" : 5126,
            "count" : 80,
            "type" : "VEC2"
        },
        {
            "bufferView" : 3,
            "componentType" : 5123,
            "count" : 80,
            "normalized" : true,
            "type" : "VEC4"
        },
        {
            "bufferView" : 4,
            "componentType" : 5123,
            "count" : 90,
            "type" : "SCALAR"
        },
        {
            "bufferView" : 5,
            "componentType" : 5126,
            "count" : 342,
            "max" : [
                0.12739971280097961,
                0.22793878614902496,
                0.13639456033706665
            ],
            "min" : [
                -0.13473409414291382,
                -0.1835005283355713,
                -0.12549909949302673
            ],
            "type" : "VEC3"
        },
        {
            "bufferView" : 6,
            "componentType" : 5126,
            "count" : 342,
            "type" : "VEC3"
        },
        {
            "bufferView" : 7,
            "componentType" : 5126,
            "count" : 342,
            "type" : "VEC2"
        },
        {
            "bufferView" : 8,
            "componentType" : 5123,
            "count" : 342,
            "normalized" : true,
            "type" : "VEC4"
        },
        {
            "bufferView" : 9,
            "componentType" : 5123,
            "count" : 372,
            "type" : "SCALAR"
        },
        {
            "bufferView" : 10,
            "componentType" : 5126,
            "count" : 86,
            "max" : [
                0.0852009505033493,
                -0.06253243237733841,
                0.08750257641077042
            ],
            "min" : [
                -0.09186098724603653,
                -0.2641626000404358,
                -0.08631325513124466
            ],
            "type" : "VEC3"
        },
        {
            "bufferView" : 11,
            "componentType" : 5126,
            "count" : 86,
            "type" : "VEC3"
        },
        {
            "bufferView" : 12,
            "componentType" : 5126,
            "count" : 86,
            "type" : "VEC2"
        },
        {
            "bufferView" : 13,
            "componentType" : 5123,
            "count" : 86,
            "normalized" : true,
            "type" : "VEC4"
        },
        {
            "bufferView" : 14,
            "componentType" : 5123,
            "count" : 90,
            "type" : "SCALAR"
        },
        {
            "bufferView" : 15,
            "componentType" : 5126,
            "count" : 130,
            "max" : [
                0.20617011189460754,
                -0.10300557315349579,
                0.019289374351501465
            ],
            "min" : [
                0.08295499533414841,
                -0.312496542930603,
                -0.009503897279500961
            ],
            "type" : "VEC3"
        },
        {
            "bufferView" : 16,
            "componentType" : 5126,
            "count" : 130,
            "type" : "VEC3"
        },
        {
            "bufferView" : 17,
            "componentType" : 5126,
            "count" : 130,
            "type" : "VEC2"
        },
        {
            "bufferView" : 18,
            "componentType" : 5123,
            "count" : 130,
            "normalized" : true,
            "type" : "VEC4"
        },
        {
            "bufferView" : 19,
            "componentType" : 5123,
            "count" : 144,
            "type" : "SCALAR"
        },
        {
            "bufferView" : 20,
            "componentType" : 5126,
            "count" : 138,
            "max" : [
                -0.04059327021241188,
                -0.10327427834272385,
                -0.0655682310461998
            ],
            "min" : [
                -0.12140997499227524,
                -0.31284409761428833,
                -0.18291601538658142
            ],
            "type" : "VEC3"
        },
        {
            "bufferView" : 21,
            "componentType" : 5126,
            "count" : 138,
            "type" : "VEC3"
        },
        {
            "bufferView" : 22,
            "componentType" : 5126,
            "count" : 138,
            "type" : "VEC2"
        },
        {
            "bufferView" : 23,
            "componentType" : 5123,
            "count" : 138,
            "normalized" : true,
            "type" : "VEC4"
        },
        {
            "bufferView" : 24,
            "componentType" : 5123,
            "count" : 144,
            "type" : "SCALAR"
        },
        {
            "bufferView" : 25,
            "componentType" : 5126,
            "count" : 130,
            "max" : [
                -0.04154154285788536,
                -0.10323125123977661,
                0.19731497764587402
            ],
            "min" : [
                -0.1186184212565422,
                -0.3097512125968933,
                0.07721718400716782
            ],
            "type" : "VEC3"
        },
        {
            "bufferView" : 26,
            "componentType" : 5126,
            "count" : 130,
            "type" : "VEC3"
        },
        {
            "bufferView" : 27,
            "componentType" : 5126,
            "count" : 130,
            "type" : "VEC2"
        },
        {
            "bufferView" : 28,
            "componentType" : 5123,
            "count" : 130,
            "normalized" : true,
            "type" : "VEC4"
        },
        {
            "bufferView" : 29,
            "componentType" : 5123,
            "count" : 144,
            "type" : "SCALAR"
        }
    ],
    "bufferViews" : [
        {
            "buffer" : 0,
            "byteLength" : 960,
            "byteOffset" : 0
        },
        {
            "buffer" : 0,
            "byteLength" : 960,
            "byteOffset" : 960
        },
        {
            "buffer" : 0,
            "byteLength" : 640,
            "byteOffset" : 1920
        },
        {
            "buffer" : 0,
            "byteLength" : 640,
            "byteOffset" : 2560
        },
        {
            "buffer" : 0,
            "byteLength" : 180,
            "byteOffset" : 3200
        },
        {
            "buffer" : 0,
            "byteLength" : 4104,
            "byteOffset" : 3380
        },
        {
            "buffer" : 0,
            "byteLength" : 4104,
            "byteOffset" : 7484
        },
        {
            "buffer" : 0,
            "byteLength" : 2736,
            "byteOffset" : 11588
        },
        {
            "buffer" : 0,
            "byteLength" : 2736,
            "byteOffset" : 14324
        },
        {
            "buffer" : 0,
            "byteLength" : 744,
            "byteOffset" : 17060
        },
        {
            "buffer" : 0,
            "byteLength" : 1032,
            "byteOffset" : 17804
        },
        {
            "buffer" : 0,
            "byteLength" : 1032,
            "byteOffset" : 18836
        },
        {
            "buffer" : 0,
            "byteLength" : 688,
            "byteOffset" : 19868
        },
        {
            "buffer" : 0,
            "byteLength" : 688,
            "byteOffset" : 20556
        },
        {
            "buffer" : 0,
            "byteLength" : 180,
            "byteOffset" : 21244
        },
        {
            "buffer" : 0,
            "byteLength" : 1560,
            "byteOffset" : 21424
        },
        {
            "buffer" : 0,
            "byteLength" : 1560,
            "byteOffset" : 22984
        },
        {
            "buffer" : 0,
            "byteLength" : 1040,
            "byteOffset" : 24544
        },
        {
            "buffer" : 0,
            "byteLength" : 1040,
            "byteOffset" : 25584
        },
        {
            "buffer" : 0,
            "byteLength" : 288,
            "byteOffset" : 26624
        },
        {
            "buffer" : 0,
            "byteLength" : 1656,
            "byteOffset" : 26912
        },
        {
            "buffer" : 0,
            "byteLength" : 1656,
            "byteOffset" : 28568
        },
        {
            "buffer" : 0,
            "byteLength" : 1104,
            "byteOffset" : 30224
        },
        {
            "buffer" : 0,
            "byteLength" : 1104,
            "byteOffset" : 31328
        },
        {
            "buffer" : 0,
            "byteLength" : 288,
            "byteOffset" : 32432
        },
        {
            "buffer" : 0,
            "byteLength" : 1560,
            "byteOffset" : 32720
        },
        {
            "buffer" : 0,
            "byteLength" : 1560,
            "byteOffset" : 34280
        },
        {
            "buffer" : 0,
            "byteLength" : 1040,
            "byteOffset" : 35840
        },
        {
            "buffer" : 0,
            "byteLength" : 1040,
            "byteOffset" : 36880
        },
        {
            "buffer" : 0,
            "byteLength" : 288,
            "byteOffset" : 37920
        }
    ],
    "buffers" : [
        {
            "byteLength" : 38208,
            "uri" : "data:application/octet-stream;base64,"
        }
    ]
}
