{
    "asset" : {
        "generator" : "Khronos glTF Blender I/O v1.6.16",
        "version" : "2.0"
    },
    "scene" : 0,
    "scenes" : [
        {
            "name" : "Scene",
            "nodes" : [
                2,
                5,
                8,
                11,
                14
            ]
        }
    ],
    "nodes" : [
        {
            "mesh" : 0,
            "name" : "SatelliteJunk1"
        },
        {
            "name" : "SatelliteJunk1-Box-colonly",
            "rotation" : [
                0,
                -0.3826834559440613,
                0,
                0.9238795638084412
            ],
            "scale" : [
                0.1994999647140503,
                0.10300000011920929,
                0.01899999938905239
            ]
        },
        {
            "children" : [
                0,
                1
            ],
            "name" : "SatelliteJunk1-Rigid",
            "translation" : [
                -0.25852009654045105,
                -0.25223928689956665,
                -0.25852012634277344
            ]
        },
        {
            "mesh" : 1,
            "name" : "SatelliteJunk2"
        },
        {
            "name" : "SatelliteJunk2-Box-colonly",
            "rotation" : [
                0,
                -0.3826834559440613,
                0,
                0.9238795638084412
            ],
            "scale" : [
                0.19690364599227905,
                0.10300000011920929,
                0.01899999938905239
            ]
        },
        {
            "children" : [
                3,
                4
            ],
            "name" : "SatelliteJunk2-Rigid",
            "translation" : [
                0.256815105676651,
                -0.2522393465042114,
                0.2568151354789734
            ]
        },
        {
            "mesh" : 2,
            "name" : "SatelliteJunk5"
        },
        {
            "name" : "SatelliteJunk5-Sphere-colonly",
            "scale" : [
                0.19999998807907104,
                0.19999998807907104,
                0.19999998807907104
            ]
        },
        {
            "children" : [
                6,
                7
            ],
            "name" : "SatelliteJunk5-Rigid",
            "translation" : [
                0,
                0.27869918942451477,
                0
            ]
        },
        {
            "mesh" : 3,
            "name" : "SatelliteJunk3",
            "translation" : [
                0,
                0.0017349198460578918,
                0
            ]
        },
        {
            "name" : "SatelliteJunk3-Box-colonly",
            "scale" : [
                0.11016702651977539,
                0.11016702651977539,
                0.11016702651977539
            ]
        },
        {
            "children" : [
                9,
                10
            ],
            "name" : "SatelliteJunk3-Rigid",
            "translation" : [
                0,
                -0.0017349198460578918,
                0
            ]
        },
        {
            "mesh" : 4,
            "name" : "SatelliteJunk4"
        },
        {
            "name" : "SatelliteJunk4-Box-colonly",
            "scale" : [
                0.11016702651977539,
                0.11016702651977539,
                0.11016702651977539
            ]
        },
        {
            "children" : [
                12,
                13
            ],
            "name" : "SatelliteJunk4-Rigid",
            "translation" : [
                0,
                -0.24942463636398315,
                0
            ]
        }
    ],
    "materials" : [
        {
            "doubleSided" : true,
            "name" : "Material",
            "pbrMetallicRoughness" : {
                "baseColorFactor" : [
                    0.800000011920929,
                    0.800000011920929,
                    0.800000011920929,
                    1
                ],
                "metallicFactor" : 0,
                "roughnessFactor" : 0.4000000059604645
            }
        }
    ],
    "meshes" : [
        {
            "name" : "SatelliteJunk1",
            "primitives" : [
                {
                    "attributes" : {
                        "POSITION" : 0,
                        "NORMAL" : 1,
                        "TEXCOORD_0" : 2,
                        "COLOR_0" : 3
                    },
                    "indices" : 4,
                    "material" : 0
                }
            ]
        },
        {
            "name" : "StelliteJunk2",
            "primitives" : [
                {
                    "attributes" : {
                        "POSITION" : 5,
                        "NORMAL" : 6,
                        "TEXCOORD_0" : 7,
                        "COLOR_0" : 8
                    },
                    "indices" : 9,
                    "material" : 0
                }
            ]
        },
        {
            "name" : "SatelliteJunk5",
            "primitives" : [
                {
                    "attributes" : {
                        "POSITION" : 10,
                        "NORMAL" : 11,
                        "TEXCOORD_0" : 12,
                        "COLOR_0" : 13
                    },
                    "indices" : 14,
                    "material" : 0
                }
            ]
        },
        {
            "name" : "SatelliteJunk3",
            "primitives" : [
                {
                    "attributes" : {
                        "POSITION" : 15,
                        "NORMAL" : 16,
                        "TEXCOORD_0" : 17,
                        "COLOR_0" : 18
                    },
                    "indices" : 19,
                    "material" : 0
                }
            ]
        },
        {
            "name" : "SatelliteJunk4",
            "primitives" : [
                {
                    "attributes" : {
                        "POSITION" : 20,
                        "NORMAL" : 21,
                        "TEXCOORD_0" : 22,
                        "COLOR_0" : 23
                    },
                    "indices" : 24,
                    "material" : 0
                }
            ]
        }
    ],
    "accessors" : [
        {
            "bufferView" : 0,
            "componentType" : 5126,
            "count" : 144,
            "max" : [
                0.1525523066520691,
                0.09836575388908386,
                0.15227973461151123
            ],
            "min" : [
                -0.14928291738033295,
                -0.09506401419639587,
                -0.1487000435590744
            ],
            "type" : "VEC3"
        },
        {
            "bufferView" : 1,
            "componentType" : 5126,
            "count" : 144,
            "type" : "VEC3"
        },
        {
            "bufferView" : 2,
            "componentType" : 5126,
            "count" : 144,
            "type" : "VEC2"
        },
        {
            "bufferView" : 3,
            "componentType" : 5123,
            "count" : 144,
            "normalized" : true,
            "type" : "VEC4"
        },
        {
            "bufferView" : 4,
            "componentType" : 5123,
            "count" : 216,
            "type" : "SCALAR"
        },
        {
            "bufferView" : 5,
            "componentType" : 5126,
            "count" : 144,
            "max" : [
                0.15184719860553741,
                0.09834740310907364,
                0.15184061229228973
            ],
            "min" : [
                -0.14997614920139313,
                -0.0950738713145256,
                -0.1493963748216629
            ],
            "type" : "VEC3"
        },
        {
            "bufferView" : 6,
            "componentType" : 5126,
            "count" : 144,
            "type" : "VEC3"
        },
        {
            "bufferView" : 7,
            "componentType" : 5126,
            "count" : 144,
            "type" : "VEC2"
        },
        {
            "bufferView" : 8,
            "componentType" : 5123,
            "count" : 144,
            "normalized" : true,
            "type" : "VEC4"
        },
        {
            "bufferView" : 9,
            "componentType" : 5123,
            "count" : 216,
            "type" : "SCALAR"
        },
        {
            "bufferView" : 10,
            "componentType" : 5126,
            "count" : 432,
            "max" : [
                0.28825026750564575,
                0.06481282413005829,
                0.2971443235874176
            ],
            "min" : [
                -0.28802257776260376,
                -0.13084766268730164,
                -0.2802775204181671
            ],
            "type" : "VEC3"
        },
        {
            "bufferView" : 11,
            "componentType" : 5126,
            "count" : 432,
            "type" : "VEC3"
        },
        {
            "bufferView" : 12,
            "componentType" : 5126,
            "count" : 432,
            "type" : "VEC2"
        },
        {
            "bufferView" : 13,
            "componentType" : 5123,
            "count" : 432,
            "normalized" : true,
            "type" : "VEC4"
        },
        {
            "bufferView" : 14,
            "componentType" : 5123,
            "count" : 648,
            "type" : "SCALAR"
        },
        {
            "bufferView" : 15,
            "componentType" : 5126,
            "count" : 144,
            "max" : [
                0.10976250469684601,
                0.11037173867225647,
                0.11037173867225647
            ],
            "min" : [
                -0.10814791917800903,
                -0.10976250469684601,
                -0.10976248979568481
            ],
            "type" : "VEC3"
        },
        {
            "bufferView" : 16,
            "componentType" : 5126,
            "count" : 144,
            "type" : "VEC3"
        },
        {
            "bufferView" : 17,
            "componentType" : 5126,
            "count" : 144,
            "type" : "VEC2"
        },
        {
            "bufferView" : 18,
            "componentType" : 5123,
            "count" : 144,
            "normalized" : true,
            "type" : "VEC4"
        },
        {
            "bufferView" : 19,
            "componentType" : 5123,
            "count" : 216,
            "type" : "SCALAR"
        },
        {
            "bufferView" : 20,
            "componentType" : 5126,
            "count" : 144,
            "max" : [
                0.10977533459663391,
                0.11039404571056366,
                0.11187076568603516
            ],
            "min" : [
                -0.10814815014600754,
                -0.1097753494977951,
                -0.10829859972000122
            ],
            "type" : "VEC3"
        },
        {
            "bufferView" : 21,
            "componentType" : 5126,
            "count" : 144,
            "type" : "VEC3"
        },
        {
            "bufferView" : 22,
            "componentType" : 5126,
            "count" : 144,
            "type" : "VEC2"
        },
        {
            "bufferView" : 23,
            "componentType" : 5123,
            "count" : 144,
            "normalized" : true,
            "type" : "VEC4"
        },
        {
            "bufferView" : 24,
            "componentType" : 5123,
            "count" : 216,
            "type" : "SCALAR"
        }
    ],
    "bufferViews" : [
        {
            "buffer" : 0,
            "byteLength" : 1728,
            "byteOffset" : 0
        },
        {
            "buffer" : 0,
            "byteLength" : 1728,
            "byteOffset" : 1728
        },
        {
            "buffer" : 0,
            "byteLength" : 1152,
            "byteOffset" : 3456
        },
        {
            "buffer" : 0,
            "byteLength" : 1152,
            "byteOffset" : 4608
        },
        {
            "buffer" : 0,
            "byteLength" : 432,
            "byteOffset" : 5760
        },
        {
            "buffer" : 0,
            "byteLength" : 1728,
            "byteOffset" : 6192
        },
        {
            "buffer" : 0,
            "byteLength" : 1728,
            "byteOffset" : 7920
        },
        {
            "buffer" : 0,
            "byteLength" : 1152,
            "byteOffset" : 9648
        },
        {
            "buffer" : 0,
            "byteLength" : 1152,
            "byteOffset" : 10800
        },
        {
            "buffer" : 0,
            "byteLength" : 432,
            "byteOffset" : 11952
        },
        {
            "buffer" : 0,
            "byteLength" : 5184,
            "byteOffset" : 12384
        },
        {
            "buffer" : 0,
            "byteLength" : 5184,
            "byteOffset" : 17568
        },
        {
            "buffer" : 0,
            "byteLength" : 3456,
            "byteOffset" : 22752
        },
        {
            "buffer" : 0,
            "byteLength" : 3456,
            "byteOffset" : 26208
        },
        {
            "buffer" : 0,
            "byteLength" : 1296,
            "byteOffset" : 29664
        },
        {
            "buffer" : 0,
            "byteLength" : 1728,
            "byteOffset" : 30960
        },
        {
            "buffer" : 0,
            "byteLength" : 1728,
            "byteOffset" : 32688
        },
        {
            "buffer" : 0,
            "byteLength" : 1152,
            "byteOffset" : 34416
        },
        {
            "buffer" : 0,
            "byteLength" : 1152,
            "byteOffset" : 35568
        },
        {
            "buffer" : 0,
            "byteLength" : 432,
            "byteOffset" : 36720
        },
        {
            "buffer" : 0,
            "byteLength" : 1728,
            "byteOffset" : 37152
        },
        {
            "buffer" : 0,
            "byteLength" : 1728,
            "byteOffset" : 38880
        },
        {
            "buffer" : 0,
            "byteLength" : 1152,
            "byteOffset" : 40608
        },
        {
            "buffer" : 0,
            "byteLength" : 1152,
            "byteOffset" : 41760
        },
        {
            "buffer" : 0,
            "byteLength" : 432,
            "byteOffset" : 42912
        }
    ],
    "buffers" : [
        {
            "byteLength" : 43344,
            "uri" : "data:application/octet-stream;base64,"
        }
    ]
}
